<?xml version="1.0" encoding="UTF-8" standalone="no"?>
<svg
   xmlns:osb="http://www.openswatchbook.org/uri/2009/osb"
   xmlns:dc="http://purl.org/dc/elements/1.1/"
   xmlns:cc="http://creativecommons.org/ns#"
   xmlns:rdf="http://www.w3.org/1999/02/22-rdf-syntax-ns#"
   xmlns:svg="http://www.w3.org/2000/svg"
   xmlns="http://www.w3.org/2000/svg"
   xmlns:sodipodi="http://sodipodi.sourceforge.net/DTD/sodipodi-0.dtd"
   xmlns:inkscape="http://www.inkscape.org/namespaces/inkscape"
   version="1.1"
   id="Capa_1"
   x="0px"
   y="0px"
   viewBox="0 0 2084.5527 606.68605"
   xml:space="preserve"
   inkscape:version="0.92.3 (2405546, 2018-03-11)"
   sodipodi:docname="Crypt-0n_NAME_LEFT.svg"
   width="2084.5527"
   height="606.68604"
   inkscape:export-xdpi="190.46645"
   inkscape:export-ydpi="190.46645"
   inkscape:export-filename="/home/romuald/Documents/Associations/Crypt-0n/2019 - Projet de modification RI+Statuts/logo/Logo/Logo_V2/Crypt-0n_Name_LEFT/Crypt-0n_NAME_LEFT_4096px1164p.png"><title
     id="title4269">The Crypt-0n Logo</title><metadata
     id="metadata84"><rdf:RDF><cc:Work
         rdf:about=""><dc:format>image/svg+xml</dc:format><dc:type
           rdf:resource="http://purl.org/dc/dcmitype/StillImage" /><dc:title>The Crypt-0n Logo</dc:title><dc:date>20/08/2016</dc:date><dc:rights><cc:Agent><dc:title>All rights reserved</dc:title></cc:Agent></dc:rights><dc:creator><cc:Agent><dc:title>RBT/JLN/HGN/EEN/MLE</dc:title></cc:Agent></dc:creator><dc:subject><rdf:Bag><rdf:li>Crypt-0n Logo</rdf:li></rdf:Bag></dc:subject><cc:license
           rdf:resource="" /><dc:identifier>be0e4ffa5754821447afaf68cecca6ddfade76ac9476c9e5daec6bf178765e80f726fc1349d2b22267666ed50528ae9a</dc:identifier></cc:Work></rdf:RDF></metadata><defs
     id="defs82"><linearGradient
       id="linearGradient5940"
       osb:paint="solid"><stop
         style="stop-color:#000000;stop-opacity:1;"
         offset="0"
         id="stop5942" /></linearGradient></defs><sodipodi:namedview
     pagecolor="#ffffff"
     bordercolor="#666666"
     borderopacity="1"
     objecttolerance="10"
     gridtolerance="10"
     guidetolerance="10"
     inkscape:pageopacity="0"
     inkscape:pageshadow="2"
     inkscape:window-width="1920"
     inkscape:window-height="1031"
     id="namedview80"
     showgrid="true"
     inkscape:zoom="0.32"
     inkscape:cx="-484.19999"
     inkscape:cy="490.84301"
     inkscape:window-x="0"
     inkscape:window-y="0"
     inkscape:window-maximized="1"
     inkscape:current-layer="Capa_1"
     fit-margin-top="10"
     fit-margin-left="10"
     fit-margin-right="10"
     fit-margin-bottom="10"
     inkscape:document-units="ft"
     showborder="true"
     inkscape:showpageshadow="false"
     showguides="false"
     inkscape:snap-others="false"
     inkscape:object-nodes="false"
     inkscape:snap-nodes="false" /><g
     style="font-style:normal;font-variant:normal;font-weight:normal;font-stretch:normal;font-size:100.04072571px;line-height:125%;font-family:'Commodore 64 Rounded';-inkscape-font-specification:'Commodore 64 Rounded, Normal';text-align:start;letter-spacing:0px;word-spacing:0px;writing-mode:lr-tb;text-anchor:start;fill:#FFFFFF;fill-opacity:1;stroke:none;stroke-width:1px;stroke-linecap:butt;stroke-linejoin:miter;stroke-opacity:1"
     id="text5293"
     transform="translate(626.9128,-368.84751)"
     inkscape:label="texte"><path
       d="m -11.093743,601.60663 q 0,-23.52796 23.527963,-23.52796 h 94.11185 q 23.52797,0 23.52797,23.52796 v 23.52795 H 83.01812 V 601.60663 H 35.962182 V 719.24645 H 83.01812 v -23.52797 h 47.05592 v 23.52797 q 0,23.52795 -23.52797,23.52795 H 12.43422 q -23.527963,0 -23.527963,-23.52795 z"
       id="path4278"
       inkscape:connector-curvature="0" /><path
       d="m 177.12996,625.13458 h 117.63982 q 23.52796,0 23.52796,23.52797 v 23.52795 h -47.05593 v -23.52795 h -47.05592 v 94.11185 h -47.05593 z"
       id="path4280"
       inkscape:connector-curvature="0" /><path
       d="m 365.35366,742.7744 h 70.58389 v -23.52795 h -47.05593 q -23.52796,0 -23.52796,-23.52797 v -70.5839 h 47.05592 v 70.5839 h 47.05593 v -70.5839 h 47.05592 v 94.11187 q 0,23.52795 -11.76398,35.29193 -11.76399,11.76398 -35.29194,11.76398 h -94.11185 z"
       id="path4282"
       inkscape:connector-curvature="0" /><path
       d="m 553.57735,625.13458 h 117.6398 q 23.528,0 23.528,23.52797 v 47.05593 q 0,23.52797 -23.528,23.52797 h -70.58387 v 47.05591 h -47.05593 z m 47.05593,23.52797 v 47.05593 h 47.05594 v -47.05593 z"
       id="path4284"
       inkscape:connector-curvature="0" /><path
       d="m 741.80104,625.13458 h 47.05595 v -23.52795 h 47.05594 v 23.52795 h 47.05595 v 23.52797 h -47.05595 v 70.5839 h 47.05595 v 23.52795 h -70.584 q -23.52789,0 -23.52789,-23.52795 v -70.5839 h -47.05595 z"
       id="path4286"
       inkscape:connector-curvature="0" /><path
       d="M 930.02475,648.66255 H 1071.1925 V 672.1905 H 930.02475 Z"
       id="path4288"
       inkscape:connector-curvature="0" /><path
       d="m 1118.2485,601.60663 q 0,-23.52796 23.5279,-23.52796 h 94.1118 q 23.5281,0 23.5281,23.52796 v 117.63982 q 0,23.52795 -23.5281,23.52795 h -94.1118 q -23.5279,0 -23.5279,-23.52795 z m 47.0559,94.11185 v 23.52797 h 47.056 v -70.5839 h -23.5282 -23.5278 l 47.056,-47.05592 v 0 h -47.056 v 47.05592 h 23.5278 23.5282 z"
       id="path4290"
       inkscape:connector-curvature="0" /><path
       d="m 1306.4722,625.13458 h 117.6398 q 23.528,0 23.528,23.52797 v 94.11185 h -47.0559 v -94.11185 h -47.056 v 94.11185 h -47.0559 z"
       id="path4292"
       inkscape:connector-curvature="0" /></g><g
     inkscape:label="LOGO"
     style="display:inline"
     transform="translate(-0.80000019,-0.51399994)"
     id="g4926"><g
   inkscape:label="Boitier"
   id="g4698"><path
     inkscape:label="BordExterne"
     inkscape:connector-curvature="0"
     id="path30"
     d="m 154.122,54.204 -99.918,99.918 v 299.755 l 99.918,99.918 h 299.755 l 99.918,-99.918 V 154.122 L 453.877,54.204 Z m 387.184,394.5 -92.602,92.602 H 159.296 L 66.694,448.704 V 159.296 l 92.602,-92.602 h 289.409 l 92.602,92.602 v 289.408 z"
     style="stroke:none" /><rect
     inkscape:label="pin22"
     id="rect24"
     height="44"
     width="15"
     y="10.514"
     x="154.12199"
     style="stroke:none;stroke-width:1.00366747" /><rect
     inkscape:label="pin21"
     id="rect20"
     height="44"
     width="15"
     y="10.514"
     x="225.314"
     style="stroke:none;stroke-width:1.00366747" /><rect
     inkscape:label="pin20"
     id="rect22"
     height="44"
     width="15"
     y="10.514"
     x="296.50601"
     style="stroke:none;stroke-width:1.00366747" /><rect
     inkscape:label="pin19"
     id="rect18"
     height="44"
     width="15"
     y="10.514"
     x="367.698"
     style="stroke:none;stroke-width:1.00366747" /><rect
     inkscape:label="pin18"
     id="rect16"
     height="44"
     width="15"
     y="10.514"
     x="438.89001"
     style="stroke:none;stroke-width:1.00366747" /><rect
     inkscape:label="pin17"
     id="rect6"
     height="15"
     width="44"
     y="154.11"
     x="553.40002"
     style="stroke:none;stroke-width:1.00366747" /><rect
     inkscape:label="pin16"
     id="rect44"
     height="15"
     width="44"
     y="225.302"
     x="553.40002"
     style="stroke:none;stroke-width:1.00366747" /><rect
     inkscape:label="pin15"
     id="rect46"
     height="15"
     width="44"
     y="296.49402"
     x="553.40002"
     style="stroke:none;stroke-width:1.00366747" /><rect
     inkscape:label="pin14"
     id="rect42"
     height="15"
     width="44"
     y="367.686"
     x="553.40002"
     style="stroke:none;stroke-width:1.00366747" /><rect
     inkscape:label="pin13"
     id="rect40"
     height="15"
     width="44"
     y="438.87802"
     x="553.40002"
     style="stroke:none;stroke-width:1.00366747" /><rect
     inkscape:label="pin12"
     id="rect48-6-7"
     height="62.603931"
     width="15.177815"
     y="-774.57092"
     x="-4.3369379"
     transform="rotate(135)"
     style="fill:#000000;stroke:none;stroke-width:1.01266456" /><rect
     inkscape:label="pin11"
     id="rect14"
     height="44"
     width="15"
     y="553.20001"
     x="438.89001"
     style="stroke:none;stroke-width:1.00366747" /><rect
     inkscape:label="pin10"
     id="rect12"
     height="44"
     width="15"
     y="553.20001"
     x="367.698"
     style="stroke:none;stroke-width:1.00366747" /><rect
     inkscape:label="pin9"
     id="rect8"
     height="44"
     width="15"
     y="553.20001"
     x="296.50601"
     style="stroke:none;stroke-width:1.00366747" /><rect
     inkscape:label="pin8"
     id="rect10"
     height="44"
     width="15"
     y="553.20001"
     x="225.314"
     style="stroke:none;stroke-width:1.00366747" /><rect
     inkscape:label="pin7"
     id="rect48"
     height="44"
     width="15"
     y="553.20001"
     x="154.12199"
     style="stroke:none;stroke-width:1.00366747" /><rect
     inkscape:label="pin6"
     x="10.8"
     id="rect38"
     height="15"
     width="44"
     y="438.87802"
     style="stroke:none;stroke-width:1.00366747" /><rect
     inkscape:label="pin5"
     x="10.8"
     id="rect36"
     height="15"
     width="44"
     y="367.686"
     style="stroke:none;stroke-width:1.00366747" /><rect
     inkscape:label="pin4"
     x="10.8"
     id="rect28"
     height="15"
     width="44"
     y="296.49402"
     style="stroke:none;stroke-width:1.00366747" /><rect
     inkscape:label="pin3"
     x="10.8"
     id="rect34"
     height="15"
     width="44"
     y="225.302"
     style="stroke:none;stroke-width:1.00366747" /><rect
     inkscape:label="pin2"
     x="10.8"
     id="rect26"
     height="15"
     width="44"
     y="154.11"
     style="stroke:none;stroke-width:1.00366747" /><rect
     inkscape:label="pin1"
     id="rect48-6"
     height="62.603931"
     width="15.177815"
     y="-147.83034"
     x="-6.9228067"
     transform="rotate(135)"
     style="fill:#000000;stroke:none;stroke-width:1.01266456" /><polygon
     inkscape:label="Puce"
     style="stroke:none"
     points="171.642,518.327 440.358,518.327 518.327,440.358 518.327,171.642 440.358,93.673 171.642,93.673 93.673,171.642 93.673,440.358 "
     id="polygon32"
     transform="translate(-1.8999877,-2.1429939)" /></g><g
   transform="translate(-3.2502205,1.0729981e-6)"
   inkscape:label="Lithium"
   id="g96"><path
   id="path5157"
   d="m 304.02979,268.55177 c -19.44969,0 -35.23089,15.77292 -35.23089,35.30523 0,19.50752 15.77293,35.30524 35.23089,35.30524 19.58188,0 35.37133,-15.79771 35.37133,-35.30524 -0.008,-19.53231 -15.79771,-35.30523 -35.37133,-35.30523 z"
   inkscape:connector-curvature="0"
   style="fill:#ff0000"
   inkscape:label="Proton" />


<path
   inkscape:label="CheminG"
   inkscape:connector-curvature="0"
   id="path939-3-6"
   d="M 250.96069,217.51222 A 98.877014,197.71304 60.23352 0 1 471.67579,205.18516 98.877014,197.71304 60.23352 0 1 349.13888,389.1738 98.877014,197.71304 60.23352 0 1 128.42379,401.50085 98.877014,197.71304 60.23352 0 1 250.96069,217.51222 Z"
   style="display:inline;fill:#006df0;fill-opacity:0;stroke:#006df0;stroke-width:17.70000076;stroke-miterlimit:4;stroke-dasharray:none;stroke-opacity:1" />

<path
   inkscape:label="CheminD"
   inkscape:connector-curvature="0"
   id="path939-3"
   d="M 251.12669,389.26852 A 197.71304,98.877014 29.65573 0 1 128.23438,205.51708 197.71304,98.877014 29.65573 0 1 348.97289,217.41748 197.71304,98.877014 29.65573 0 1 471.86521,401.16891 197.71304,98.877014 29.65573 0 1 251.12669,389.26852 Z"
   style="display:inline;fill:#006df0;fill-opacity:0;stroke:#006df0;stroke-width:17.70000076;stroke-miterlimit:4;stroke-dasharray:none;stroke-opacity:1" />

<path
   inkscape:label="CheminH"
   inkscape:connector-curvature="0"
   id="path939"
   d="M 398.9268,303.343 A 98.877014,197.71304 0 0 1 300.04979,501.05605 98.877014,197.71304 0 0 1 201.17278,303.343 98.877014,197.71304 0 0 1 300.04979,105.62996 98.877014,197.71304 0 0 1 398.9268,303.343 Z"
   style="display:inline;fill:#006df0;fill-opacity:0;stroke:#006df0;stroke-width:17.70000076;stroke-miterlimit:4;stroke-dasharray:none;stroke-opacity:1" />

<circle
   inkscape:label="ElectronG"
   style="opacity:1;fill:#1ec800;fill-opacity:1;fill-rule:evenodd;stroke:none;stroke-width:0.1;stroke-miterlimit:4;stroke-dasharray:none;stroke-opacity:1"
   id="path5996-9"
   cx=""
   cy=""
   r="17.890625">

	<animateMotion
   path="M 250.96069,217.51222 A 98.877014,197.71304 60.23352 0 1 471.67579,205.18516 98.877014,197.71304 60.23352 0 1 349.13888,389.1738 98.877014,197.71304 60.23352 0 1 128.42379,401.50085 98.877014,197.71304 60.23352 0 1 250.96069,217.51222 Z"
   begin="0s"
   dur="5s"
   repeatCount="indefinite">        
        </animateMotion>

</circle><circle
   inkscape:label="ElectronD"
   style="opacity:1;fill:#1ec800;fill-opacity:1;fill-rule:evenodd;stroke:none;stroke-width:1404;stroke-miterlimit:4;stroke-dasharray:none;stroke-opacity:1"
   id="path5996"
   cy=""
   cx=""
   r="17.890625">

	<animateMotion
   path="M 251.12669,389.26852 A 197.71304,98.877014 29.65573 0 1 128.23438,205.51708 197.71304,98.877014 29.65573 0 1 348.97289,217.41748 197.71304,98.877014 29.65573 0 1 471.86521,401.16891 197.71304,98.877014 29.65573 0 1 251.12669,389.26852 Z"
   begin="0s"
   dur="5s"
   repeatCount="indefinite">        
        </animateMotion>

</circle><circle
   inkscape:label="ElectronH"
   style="opacity:1;fill:#1ec800;fill-opacity:1;fill-rule:evenodd;stroke:none;stroke-width:1404;stroke-miterlimit:4;stroke-dasharray:none;stroke-opacity:1"
   id="path5996-4"
   cx=""
   cy=""
   r="17.890625">

	<animateMotion
   path="M 398.9268,303.343 A 98.877014,197.71304 0 0 1 300.04979,501.05605 98.877014,197.71304 0 0 1 201.17278,303.343 98.877014,197.71304 0 0 1 300.04979,105.62996 98.877014,197.71304 0 0 1 398.9268,303.343 Z"
   begin="0s"
   dur="5s"
   repeatCount="indefinite">        
        </animateMotion>

</circle>

<text
   id="text4839"
   y="342.04688"
   x="304.07236"
   style="font-style:normal;font-weight:normal;font-size:2.33333325px;line-height:125%;font-family:sans-serif;text-align:center;letter-spacing:0px;word-spacing:0px;text-anchor:middle;fill:#000000;fill-opacity:1;stroke:none;stroke-width:1px;stroke-linecap:butt;stroke-linejoin:miter;stroke-opacity:1"
   xml:space="preserve"
   inkscape:label="TexteCache"><tspan
     y="342.04688"
     x="304.44379"
     id="tspan4837"
     sodipodi:role="line">Fondateurs : </tspan><tspan
     id="tspan4851"
     y="344.96353"
     x="304.07236"
     sodipodi:role="line">Romuald BOISSET</tspan><tspan
     id="tspan4841"
     y="347.88022"
     x="304.07236"
     sodipodi:role="line">Julien LEQUEN</tspan><tspan
     id="tspan4843"
     y="350.79688"
     x="304.07236"
     sodipodi:role="line">Eric ENDELIN</tspan><tspan
     id="tspan4845"
     y="353.71353"
     x="304.07236"
     sodipodi:role="line">Hugues GERMAIN</tspan><tspan
     id="tspan4847"
     y="356.63022"
     x="304.07236"
     sodipodi:role="line">Mathieu LEFEBVRE</tspan><tspan
     id="tspan4849"
     y="359.54688"
     x="304.07236"
     sodipodi:role="line">SHA384:be0e4ffa5754821447afaf68cecca6ddfade76ac9476c9e5daec6bf178765e80f726fc1349d2b22267666ed50528ae9a</tspan></text>



</g>

</g></svg>